<svg width="40" height="37" viewBox="0 0 40 37" fill="none" xmlns="http://www.w3.org/2000/svg">
<path d="M39.8635 11.218C39.7213 10.8416 39.4736 10.5181 39.2105 10.2971C38.9465 10.0718 38.6718 9.92008 38.4064 9.80326C37.8739 9.57526 37.3645 9.46814 36.8693 9.39793C36.5458 9.35415 36.2273 9.32819 35.9119 9.31333C32.7336 3.75289 26.764 0 19.9387 0C13.7204 0 8.21318 3.1155 4.87897 7.8742C4.44798 7.87154 4.00983 7.88968 3.56032 7.94269C3.06615 8.0068 2.55487 8.1036 2.01668 8.35161C1.74999 8.47625 1.47179 8.64748 1.22222 8.90144C1.09681 9.02451 0.984626 9.1765 0.888625 9.33648C0.79838 9.50114 0.720273 9.67675 0.677952 9.85768C0.582262 10.2209 0.599688 10.5728 0.65539 10.8776C0.71296 11.1845 0.811451 11.4532 0.92379 11.699C1.15111 12.1896 1.43382 12.5977 1.73039 12.9782C1.88411 13.1722 2.04251 13.3583 2.20432 13.5383C1.76617 15.118 1.53107 16.7819 1.53107 18.5002C1.53107 19.652 1.63812 20.7867 1.84179 21.8962C1.63112 22.0954 1.42449 22.3031 1.22455 22.5244C0.89407 22.8936 0.577749 23.299 0.322576 23.8043C0.197168 24.0583 0.0879416 24.3426 0.031928 24.6717C-0.0259527 24.9971 -0.00914941 25.3845 0.115481 25.7454C0.243845 26.1049 0.473657 26.4191 0.723696 26.6383C0.974357 26.8618 1.23902 27.0171 1.49731 27.1384C2.01559 27.3764 2.51924 27.4987 3.01092 27.5835C3.33175 27.6371 3.64869 27.6737 3.96315 27.6996C4.33533 28.3494 4.74858 28.9801 5.20261 29.5885C5.58039 30.095 6.29534 30.1979 6.79946 29.8179C7.30358 29.4381 7.40565 28.7195 7.02772 28.213C6.90215 28.0448 6.78063 27.8742 6.66207 27.7022C8.26842 27.6046 9.84303 27.3759 11.4018 27.0901C11.5849 27.0565 11.7676 27.0211 11.9501 26.9855L9.96345 32.9925C9.9633 32.9928 9.9633 32.993 9.96314 32.9933L9.95661 33.0129C9.95334 33.0227 9.95147 33.0326 9.94836 33.0424C9.94089 33.0671 9.93358 33.092 9.92782 33.117C9.92455 33.1311 9.92238 33.145 9.91973 33.1591C9.91537 33.1817 9.91102 33.2043 9.90822 33.2269C9.90588 33.2443 9.90479 33.2617 9.90339 33.279C9.90184 33.2982 9.89997 33.3175 9.89935 33.3366C9.89873 33.3566 9.89919 33.3764 9.8995 33.3963C9.89981 33.413 9.89997 33.4298 9.90106 33.4463C9.90246 33.4674 9.90479 33.4882 9.90728 33.5092C9.90915 33.5248 9.91086 33.5405 9.9132 33.5561C9.91646 33.5768 9.92082 33.5969 9.92518 33.6173C9.9286 33.6332 9.93187 33.649 9.93607 33.6648C9.94105 33.6837 9.94681 33.7022 9.95272 33.7208C9.95801 33.7378 9.9633 33.7547 9.96952 33.7714C9.97559 33.788 9.98244 33.8041 9.98928 33.8204C9.99691 33.8385 10.0045 33.8567 10.0131 33.8743C10.0201 33.8887 10.0277 33.9028 10.0353 33.9169C10.0453 33.9353 10.0553 33.9539 10.0661 33.9719C10.0742 33.9852 10.0829 33.998 10.0915 34.0109C10.1032 34.0285 10.1148 34.046 10.1276 34.0631C10.1376 34.0764 10.1483 34.0892 10.1589 34.1022C10.1715 34.1175 10.1838 34.1328 10.1973 34.1475C10.2104 34.1619 10.2244 34.1755 10.2382 34.1893C10.2504 34.2013 10.2622 34.2135 10.2748 34.2249C10.2921 34.2407 10.3104 34.2554 10.3289 34.2701C10.3395 34.2786 10.3498 34.2875 10.3608 34.2956C10.382 34.3114 10.4042 34.326 10.4268 34.3402C10.4349 34.3453 10.4422 34.3511 10.4503 34.3561C10.4537 34.3582 10.4573 34.3602 10.4609 34.3622C10.4657 34.3652 10.4707 34.368 10.4757 34.3708C13.3257 36.0907 16.597 37 19.9382 37C26.1638 37 31.6767 33.8772 35.0096 29.1088C35.3526 29.1313 35.702 29.1388 36.0608 29.1222C36.5536 29.0967 37.0695 29.0348 37.6088 28.8306C37.8771 28.7283 38.1528 28.5883 38.4118 28.3861C38.6703 28.1857 38.9068 27.917 39.0723 27.6116L39.1336 27.496L39.1904 27.3625C39.2296 27.2734 39.2519 27.1806 39.2794 27.0884C39.3213 26.9049 39.3466 26.7184 39.3451 26.5448C39.3473 26.1933 39.2814 25.8804 39.1938 25.6011C39.0132 25.0437 38.7516 24.5951 38.4759 24.1776C38.2427 23.8362 37.9945 23.5203 37.7373 23.2204C38.1335 21.7128 38.3456 20.1307 38.3456 18.4995C38.3456 17.4341 38.2542 16.39 38.0814 15.3734C38.3275 15.1318 38.5681 14.8778 38.8 14.6056C39.1266 14.2182 39.4398 13.7932 39.6914 13.262C39.8148 12.9949 39.9222 12.6954 39.9735 12.348C40.0277 12.0055 40.0025 11.5957 39.8635 11.218ZM36.0649 18.5003C36.0649 19.4569 35.9813 20.3942 35.8225 21.3057C35.744 21.2361 35.6662 21.1653 35.5872 21.0968C34.7624 20.3801 33.9038 19.7194 33.0271 19.0917C33.4898 18.8162 33.9485 18.5322 34.4005 18.2343C34.9433 17.8786 35.4791 17.5076 36.0054 17.1167C36.044 17.573 36.0649 18.0343 36.0649 18.5003ZM24.7893 25.8206C24.0829 25.404 23.372 25.0081 22.6558 24.6284C22.3921 24.4849 22.1262 24.3471 21.8595 24.211C21.9024 24.1959 21.9457 24.1815 21.9886 24.1662C22.6737 23.9216 23.3552 23.6661 24.0342 23.4035L24.7893 25.8206ZM21.2259 22.0579C20.499 22.3279 19.768 22.5885 19.0345 22.8412C18.6341 22.6637 18.2242 22.4753 17.8377 22.2946C17.2809 22.0291 16.7276 21.7553 16.1761 21.4773L18.5133 14.4101C18.7946 14.3069 19.0773 14.2075 19.3599 14.1077C19.8659 14.3301 20.3705 14.5559 20.8721 14.7886C21.0565 14.8738 21.2401 14.961 21.4242 15.0472L23.3538 21.2246C22.6476 21.5101 21.9387 21.7889 21.2259 22.0579ZM17.4377 23.3765C16.7397 23.6019 16.0383 23.8154 15.335 24.0207L15.8088 22.588C16.3216 22.8413 16.8359 23.0917 17.3538 23.3364L17.4377 23.3765ZM3.81254 18.5003C3.81254 17.4238 3.91849 16.3719 4.11874 15.3535C5.251 16.3032 6.4444 17.1467 7.65554 17.9533C6.37796 18.6528 5.11703 19.3935 3.90682 20.2433C3.84599 19.6681 3.81254 19.0869 3.81254 18.5003ZM8.72524 17.1111C8.00609 16.6185 7.30296 16.1048 6.62333 15.5665C5.94292 15.0297 5.28196 14.4719 4.66083 13.8847C4.61353 13.84 4.56685 13.7946 4.52002 13.7494C4.93981 12.376 5.53698 11.0801 6.28398 9.88802C7.9146 10.1259 9.55284 10.5464 11.1676 11.036C12.8214 11.5312 14.4573 12.112 16.0727 12.7485C16.2458 12.8154 16.4179 12.8854 16.5908 12.9536L16.2317 14.0394C15.1467 14.4573 14.0689 14.8952 13.002 15.361C11.6389 15.9586 10.2866 16.5866 8.95708 17.2668C8.88021 17.2143 8.80195 17.1639 8.72524 17.1111ZM19.421 11.6654L19.9079 10.1934L20.5128 12.1298C20.15 11.9725 19.7861 11.8175 19.421 11.6654ZM15.7512 15.4927L14.1265 20.4059C12.7828 19.6756 11.4648 18.9008 10.1816 18.0762C11.9921 17.1284 13.8556 16.2737 15.7512 15.4927ZM24.2441 16.4203C24.6817 16.6432 25.1175 16.8691 25.5502 17.1007C26.3165 17.5111 27.0765 17.9322 27.8265 18.369C28.1131 18.5333 28.3972 18.7014 28.6812 18.8695C27.6222 19.381 26.55 19.8695 25.468 20.3385L24.2441 16.4203ZM35.4503 14.976C34.0653 15.9939 32.541 16.8745 30.9938 17.7067C30.3199 17.2682 29.6398 16.841 28.9511 16.43C28.1796 15.9737 27.3993 15.5345 26.6132 15.1068C25.5217 14.5169 24.4189 13.9497 23.3036 13.4093L23.1431 12.8959C25.0118 12.3592 26.9018 11.9079 28.8066 11.5684C30.5601 11.2608 32.3295 11.0344 34.0705 10.9919C34.122 10.9906 34.1735 10.9903 34.2251 10.9895C34.852 12.1891 35.3345 13.4762 35.6473 14.8284C35.5817 14.8778 35.5164 14.9273 35.4503 14.976ZM19.9387 2.29311C25.4786 2.29311 30.3747 5.11555 33.279 9.4045C31.6645 9.56275 30.0904 9.85784 28.5348 10.2081C26.7503 10.6114 24.9921 11.0949 23.2505 11.624C23.0966 11.6699 22.944 11.7197 22.7904 11.7669L21.0271 6.12168C20.8788 5.64708 20.4431 5.32275 19.9482 5.31869C19.4542 5.31603 19.0123 5.6316 18.8562 6.10354L17.2972 10.8178C17.1525 10.7623 17.0087 10.7049 16.8639 10.6504C15.1835 10.0336 13.4796 9.47409 11.7439 8.99901C10.3775 8.63622 8.99348 8.32097 7.57385 8.10908C10.5342 4.55651 14.9781 2.29311 19.9387 2.29311ZM2.41671 11.0405C2.28259 10.7218 2.25364 10.4264 2.30701 10.3016C2.33066 10.2347 2.36101 10.1881 2.4276 10.1296C2.49155 10.0716 2.59455 10.0066 2.73007 9.95229C2.99489 9.84236 3.35369 9.77621 3.72618 9.74634C3.37921 10.393 3.06911 11.0623 2.79931 11.7519C2.64434 11.5131 2.51053 11.2723 2.41671 11.0405ZM2.18519 25.6064C2.03255 25.5416 1.90356 25.4656 1.81316 25.3914C1.71996 25.3162 1.67951 25.25 1.6473 25.1857C1.62412 25.1182 1.60513 25.0395 1.62178 24.9177C1.63703 24.7985 1.68168 24.6512 1.75217 24.4974C1.87198 24.2368 2.05371 23.9635 2.26469 23.6981C2.47646 24.4279 2.73427 25.1429 3.03535 25.841C2.72447 25.7868 2.43056 25.7101 2.18519 25.6064ZM11.0112 25.1346C9.28211 25.5122 7.53371 25.8125 5.8032 25.9265C5.73723 25.9306 5.67125 25.9338 5.60528 25.9373C4.94152 24.6511 4.45763 23.2867 4.16106 21.8709C4.19187 21.846 4.22253 21.821 4.25349 21.7963C5.6294 20.7126 7.13819 19.7515 8.69365 18.8798C8.76507 18.8397 8.83789 18.8017 8.90962 18.7618C10.1206 19.5196 11.3571 20.23 12.6025 20.9198C12.9838 21.1299 13.3669 21.3362 13.7514 21.5395L12.6941 24.7366C12.1344 24.8761 11.5738 25.0109 11.0112 25.1346ZM19.9387 34.7077C17.307 34.7077 14.7263 34.0626 12.4189 32.8388L14.5444 26.4114C15.2858 26.2297 16.0237 26.0358 16.7584 25.8324C17.9172 25.5122 19.0649 25.1562 20.2048 24.7776C20.7963 25.1129 21.3787 25.4635 21.9424 25.84C22.6631 26.3215 23.3639 26.8304 24.0207 27.3841C24.3442 27.6663 24.6698 27.9434 24.9687 28.2434C25.1203 28.3918 25.2661 28.5419 25.4081 28.6937C25.4753 28.7708 25.5463 28.8481 25.6101 28.9244C25.6718 28.9969 25.7465 29.0862 25.7772 29.138C25.8461 29.2537 25.9381 29.3635 26.0485 29.4531C26.2552 29.6209 26.5013 29.705 26.7478 29.7125C26.8914 29.7249 27.0397 29.7103 27.1856 29.6644C27.7867 29.4747 28.121 28.8312 27.9323 28.2273L26.1571 22.5445C26.4705 22.4116 26.7837 22.279 27.0951 22.1411C27.934 21.7706 28.764 21.3783 29.5881 20.9714C30.039 20.7442 30.4868 20.5101 30.9328 20.2713C32.0876 21.0292 33.2082 21.831 34.2704 22.6823C34.6119 22.9591 34.9457 23.2432 35.2673 23.5352C34.8178 24.9144 34.1887 26.2123 33.4081 27.4016C33.0076 27.3556 32.6051 27.2985 32.2029 27.2327C31.3541 27.0892 30.5008 26.921 29.6513 26.7254L29.6463 26.7242C29.3621 26.6597 29.0706 26.8222 28.9785 27.1062C28.8808 27.4074 29.0446 27.7312 29.3443 27.8294C30.1925 28.1073 31.0481 28.3752 31.9255 28.5882C32.1 28.631 32.2754 28.6723 32.4514 28.7122C29.492 32.3678 24.9824 34.7077 19.9387 34.7077ZM37.4307 26.1992C37.4834 26.339 37.51 26.4647 37.5152 26.5565C37.5208 26.6047 37.5141 26.6386 37.5128 26.6719C37.5064 26.6849 37.5097 26.7026 37.5025 26.7142C37.5002 26.7206 37.4985 26.7275 37.4974 26.7345L37.4822 26.7661C37.4426 26.8524 37.3887 26.9284 37.3037 27.0047C37.2195 27.0804 37.1033 27.153 36.9633 27.2152C36.71 27.3279 36.3863 27.4053 36.0434 27.4505C36.4023 26.8006 36.7235 26.1268 37.0039 25.4322C37.1865 25.6947 37.3415 25.9603 37.4307 26.1992ZM38.1268 12.0631C38.1069 12.1641 38.0603 12.2959 37.988 12.4368C37.8799 12.647 37.7249 12.8712 37.5433 13.0923C37.3452 12.4423 37.1122 11.8074 36.8467 11.1897C37.1503 11.2552 37.4346 11.3426 37.6661 11.4532C37.8114 11.5226 37.9306 11.6022 38.0076 11.6746C38.0876 11.7483 38.1103 11.8049 38.1285 11.8524C38.1375 11.9032 38.1479 11.9592 38.1268 12.0631Z" fill="url(#paint0_linear_3247_3299)"/>
<defs>
<linearGradient id="paint0_linear_3247_3299" x1="20" y1="0" x2="20" y2="37" gradientUnits="userSpaceOnUse">
<stop stop-color="#00F2FE"/>
<stop offset="0.846154" stop-color="#84A98C"/>
</linearGradient>
</defs>
</svg>
